<svg xmlns="http://www.w3.org/2000/svg" viewBox="0 0 64 64" role="img" aria-label="ReadU">
  <defs>
    <linearGradient id="readu" x1="0" y1="0" x2="64" y2="64" gradientUnits="userSpaceOnUse">
      <stop stop-color="#6C4AE2" />
      <stop offset="1" stop-color="#FF6B5E" />
    </linearGradient>
  </defs>
  <rect width="64" height="64" rx="15" fill="url(#readu)" />
  <g fill="#ffffff">
    <path d="M31 22C26.5 19 19.5 18.4 14.8 19.8 13.7 20.1 13 21.1 13 22.2V43c0 1.3 1.2 2.2 2.5 1.9 4.2-1 9.8-.4 13.7 2.1.3.2.5.3.8.4V22Z" />
    <path d="M33 22c4.5-3 11.5-3.6 16.2-2.2 1.1.3 1.8 1.3 1.8 2.4V43c0 1.3-1.2 2.2-2.5 1.9-4.2-1-9.8-.4-13.7 2.1-.3.2-.5.3-.8.4V22Z" />
  </g>
</svg>
